<svg width="20" height="20" viewBox="0 0 20 20" fill="none" xmlns="http://www.w3.org/2000/svg">
<g clip-path="url(#clip0_750_887)">
<path d="M19.1306 16.6994L11.4289 8.99772L2.43083 -0.000366211H1.72763L1.58404 0.36449C1.20506 1.32752 1.04314 2.31249 1.11584 3.2128C1.1987 4.23904 1.58857 5.12754 2.24336 5.78233L9.26774 12.8067L10.1942 11.8802L16.6883 19.1418C17.3343 19.7878 18.4462 19.8261 19.1306 19.1418C19.804 18.4684 19.804 17.3728 19.1306 16.6994Z" fill="#29D697"/>
<path d="M6.01244 11.1808L0.510973 16.6823C-0.162349 17.3556 -0.162349 18.4512 0.510973 19.1245C1.15061 19.7642 2.25715 19.8207 2.95326 19.1245L8.45477 13.623L6.01244 11.1808Z" fill="#29D697"/>
<path d="M18.8074 3.2695L15.6866 6.39021L14.8725 5.5761L17.9932 2.45535L17.1791 1.64124L14.0584 4.76195L13.2443 3.94784L16.365 0.827132L15.551 0.0130615L11.4804 4.0836C10.9825 4.58158 10.6851 5.24277 10.6431 5.94548C10.6324 6.12352 10.5921 6.29864 10.5251 6.4652L13.1694 9.10943C13.3359 9.04241 13.5111 9.00209 13.6891 8.99146C14.3918 8.94954 15.053 8.65212 15.551 8.15415L19.6215 4.08364L18.8074 3.2695Z" fill="#29D697"/>
</g>
<defs>
<clipPath id="clip0_750_887">
<rect width="19.6411" height="19.6411" fill="white"/>
</clipPath>
</defs>
</svg>
